<svg xmlns="http://www.w3.org/2000/svg" viewBox="0 0 940 1140" font-family="-apple-system, BlinkMacSystemFont, 'Segoe UI', Helvetica, Arial, sans-serif">
  <defs>
    <filter id="cardShadow" x="-3%" y="-3%" width="106%" height="107%">
      <feDropShadow dx="0" dy="4" stdDeviation="10" flood-color="#0f172a" flood-opacity="0.14"/>
    </filter>
  </defs>
  <g filter="url(#cardShadow)">
    <rect x="6" y="6" width="928" height="1128" rx="12" fill="#ffffff" stroke="#e5e9f0"/>
  </g>
  <!-- header -->
  <g stroke="#334155" stroke-width="1.8" stroke-linecap="round">
    <line x1="36" y1="38" x2="56" y2="38"/><line x1="36" y1="45" x2="56" y2="45"/><line x1="36" y1="52" x2="56" y2="52"/>
  </g>
  <text x="74" y="53" font-size="22" font-weight="700" fill="#0f172a">exoplanets</text>
  <rect x="196" y="34" width="60" height="24" rx="6" fill="#f1f5f9"/>
  <text x="226" y="50" text-anchor="middle" font-size="12" fill="#94a3b8">.ipynb</text>
  <circle cx="82" cy="81" r="4.5" fill="#22c55e"/>
  <text x="93" y="86" font-size="13.5" fill="#334155">Python 3.12 (Nebula)</text>
  <path d="M232 78 l5 6 5 -6" fill="none" stroke="#94a3b8" stroke-width="1.5"/>
  <path d="M258 80 l4 4 7 -8" fill="none" stroke="#16a34a" stroke-width="1.8" stroke-linecap="round" stroke-linejoin="round"/>
  <text x="275" y="86" font-size="13.5" fill="#94a3b8">2m ago</text>
  <circle cx="346" cy="81" r="6" fill="none" stroke="#16a34a" stroke-width="1.5"/>
  <path d="M343.5 81 l2 2 3.5 -4" fill="none" stroke="#16a34a" stroke-width="1.4" stroke-linecap="round"/>
  <text x="358" y="86" font-size="13.5" fill="#16a34a">#1 0.4s</text>
  <!-- header controls -->
  <text x="436" y="51" font-size="17" fill="#64748b">↶</text>
  <text x="462" y="51" font-size="17" fill="#64748b">↷</text>
  <line x1="490" y1="32" x2="490" y2="56" stroke="#e2e8f0"/>
  <g stroke="#475569" stroke-width="1.5" fill="none" stroke-linecap="round">
    <rect x="502" y="36" width="24" height="16" rx="3"/>
    <line x1="508" y1="44" x2="510" y2="44"/><line x1="515" y1="44" x2="517" y2="44"/><line x1="520" y1="44" x2="522" y2="44"/>
  </g>
  <rect x="540" y="32" width="28" height="25" rx="7" fill="#f0fdf4" stroke="#4ade80" stroke-width="1.3"/>
  <g stroke="#16a34a" stroke-width="1.5" fill="none" stroke-linecap="round">
    <path d="M548 50 l3 -0.8 9 -9 -2.3 -2.3 -9 9 z"/>
    <line x1="547" y1="37" x2="563" y2="52"/>
  </g>
  <g stroke="#475569" stroke-width="1.6" fill="none" stroke-linecap="round" stroke-linejoin="round">
    <polyline points="592,35 600,35 600,43"/><line x1="600" y1="35" x2="592" y2="43"/>
    <polyline points="586,54 578,54 578,46"/><line x1="578" y1="54" x2="586" y2="46"/>
  </g>
  <circle cx="626" cy="44" r="7" fill="none" stroke="#475569" stroke-width="1.6"/>
  <circle cx="626" cy="44" r="2.2" fill="#475569"/>
  <g stroke="#475569" stroke-width="1.6" stroke-linecap="round">
    <line x1="626" y1="34" x2="626" y2="36.5"/><line x1="626" y1="51.5" x2="626" y2="54"/>
    <line x1="616" y1="44" x2="618.5" y2="44"/><line x1="633.5" y1="44" x2="636" y2="44"/>
  </g>
  <g stroke="#475569" stroke-width="1.5" fill="none" stroke-linejoin="round">
    <path d="M654 36 h13 l4 4 v13 h-17 z"/>
    <rect x="658" y="45" width="9" height="8"/>
    <line x1="659" y1="36" x2="659" y2="41"/><line x1="666" y1="36" x2="666" y2="41"/>
  </g>
  <text x="678" y="50" font-size="14.5" fill="#334155">Save</text>
  <!-- Run All: x 724..818 -->
  <rect x="724" y="28" width="94" height="34" rx="10" fill="#0f172a"/>
  <polygon points="739,38 739,52 750,45" fill="#ffffff"/>
  <text x="757" y="50" font-size="14.5" fill="#ffffff" font-weight="600">Run All</text>
  <!-- Agent: x 828..910 -->
  <rect x="828" y="28" width="82" height="34" rx="10" fill="#9d2ce8"/>
  <g transform="translate(841,37)">
    <rect x="0" y="2.6" width="13.5" height="11" rx="3" fill="none" stroke="#ffffff" stroke-width="1.5"/>
    <line x1="6.75" y1="2.6" x2="6.75" y2="0" stroke="#ffffff" stroke-width="1.5"/>
    <circle cx="4.2" cy="8.1" r="1.2" fill="#ffffff"/>
    <circle cx="9.3" cy="8.1" r="1.2" fill="#ffffff"/>
  </g>
  <text x="861" y="50" font-size="14.5" fill="#ffffff" font-weight="600">Agent</text>
  <rect x="30" y="106" width="880" height="688" rx="11" fill="#ffffff" stroke="#e5e9f0"/>
  <g font-family="ui-monospace, SFMono-Regular, Menlo, monospace">
    <text x="50" y="134" font-size="12" fill="#94a3b8">#1</text>
    <text x="72" y="134" font-size="12" fill="#16a34a">[1]</text>
  </g>
  <g stroke="#64748b" stroke-width="1.4" fill="none" stroke-linecap="round" stroke-linejoin="round">
    <polygon points="102,123 102,136 112,129.5"/>
    <rect x="126" y="123" width="11" height="11" rx="2"/>
    <polyline points="152,133 158,125 164,133"/>
    <polyline points="178,125 184,133 190,125"/>
    <rect x="203" y="125" width="10" height="11" rx="1.5"/><line x1="201" y1="125" x2="217" y2="125"/>
    <line x1="230" y1="129.5" x2="241" y2="129.5"/><line x1="235.5" y1="124" x2="235.5" y2="135"/>
  </g>
  <rect x="752" y="117" width="72" height="25" rx="6" fill="#ffffff" stroke="#dde3ec"/>
  <text x="788" y="134" text-anchor="middle" font-size="12" fill="#1e293b">&lt;&gt; Code</text>
  <text x="858" y="134" text-anchor="middle" font-size="12" fill="#94a3b8">▤ Text</text>
  <g font-family="ui-monospace, SFMono-Regular, Menlo, monospace" font-size="13">
    <text x="56" y="168"><tspan fill="#c2563c"># Where do we find worlds like ours? 5,600+ confirmed exoplanets, one scatter.</tspan></text>
    <text x="56" y="210"><tspan fill="#a626a4">import</tspan><tspan fill="#1e293b"> pandas </tspan><tspan fill="#a626a4">as</tspan><tspan fill="#1e293b"> pd</tspan></text>
    <text x="56" y="231"><tspan fill="#a626a4">import</tspan><tspan fill="#1e293b"> matplotlib.pyplot </tspan><tspan fill="#a626a4">as</tspan><tspan fill="#1e293b"> plt</tspan></text>
    <text x="56" y="273"><tspan fill="#1e293b">df = pd.read_csv(</tspan><tspan fill="#b3403a">"exoplanets.csv"</tspan><tspan fill="#1e293b">)</tspan></text>
    <text x="56" y="294"><tspan fill="#1e293b">hz = df[df.in_habitable_zone]</tspan><tspan x="470" fill="#c2563c"># 24 temperate candidates</tspan></text>
    <text x="56" y="336"><tspan fill="#1e293b">fig, ax = plt.subplots(figsize=(</tspan><tspan fill="#0d9488">9</tspan><tspan fill="#1e293b">, </tspan><tspan fill="#0d9488">4.5</tspan><tspan fill="#1e293b">))</tspan></text>
    <text x="56" y="357"><tspan fill="#1e293b">ax.scatter(df.period_days, df.radius_earth, s=</tspan><tspan fill="#0d9488">8</tspan><tspan fill="#1e293b">, alpha=</tspan><tspan fill="#0d9488">.3</tspan><tspan fill="#1e293b">, c=</tspan><tspan fill="#b3403a">"#94a3b8"</tspan><tspan fill="#1e293b">)</tspan></text>
    <text x="56" y="378"><tspan fill="#1e293b">ax.scatter(hz.period_days, hz.radius_earth, s=</tspan><tspan fill="#0d9488">30</tspan><tspan fill="#1e293b">, c=</tspan><tspan fill="#b3403a">"#7c3aed"</tspan><tspan fill="#1e293b">, label=</tspan><tspan fill="#b3403a">"habitable zone"</tspan><tspan fill="#1e293b">)</tspan></text>
    <text x="56" y="399"><tspan fill="#1e293b">ax.set(xscale=</tspan><tspan fill="#b3403a">"log"</tspan><tspan fill="#1e293b">, xlabel=</tspan><tspan fill="#b3403a">"orbital period (days)"</tspan><tspan fill="#1e293b">, ylabel=</tspan><tspan fill="#b3403a">"radius (R⊕)"</tspan><tspan fill="#1e293b">)</tspan></text>
    <text x="56" y="420"><tspan fill="#1e293b">ax.legend(frameon=</tspan><tspan fill="#a626a4">False</tspan><tspan fill="#1e293b">)</tspan></text>
  </g>
  <line x1="30" y1="451" x2="910" y2="451" stroke="#eef2f7"/>
  <path d="M48 465 l6 6 6 -6" fill="none" stroke="#94a3b8" stroke-width="1.5"/>
  <g>
    <line x1="239" y1="485" x2="239" y2="715" stroke="#f1f5f9"/>
    <text x="239" y="731" text-anchor="middle" font-size="10.5" fill="#94a3b8">1</text>
    <line x1="418" y1="485" x2="418" y2="715" stroke="#f1f5f9"/>
    <text x="418" y="731" text-anchor="middle" font-size="10.5" fill="#94a3b8">10</text>
    <line x1="597" y1="485" x2="597" y2="715" stroke="#f1f5f9"/>
    <text x="597" y="731" text-anchor="middle" font-size="10.5" fill="#94a3b8">100</text>
    <line x1="776" y1="485" x2="776" y2="715" stroke="#f1f5f9"/>
    <text x="776" y="731" text-anchor="middle" font-size="10.5" fill="#94a3b8">1000</text>
    <line x1="150" y1="715" x2="830" y2="715" stroke="#f1f5f9"/>
    <text x="142" y="718" text-anchor="end" font-size="10.5" fill="#94a3b8">0</text>
    <line x1="150" y1="661" x2="830" y2="661" stroke="#f1f5f9"/>
    <text x="142" y="664" text-anchor="end" font-size="10.5" fill="#94a3b8">4</text>
    <line x1="150" y1="607" x2="830" y2="607" stroke="#f1f5f9"/>
    <text x="142" y="610" text-anchor="end" font-size="10.5" fill="#94a3b8">8</text>
    <line x1="150" y1="553" x2="830" y2="553" stroke="#f1f5f9"/>
    <text x="142" y="556" text-anchor="end" font-size="10.5" fill="#94a3b8">12</text>
    <line x1="150" y1="499" x2="830" y2="499" stroke="#f1f5f9"/>
    <text x="142" y="502" text-anchor="end" font-size="10.5" fill="#94a3b8">16</text>
    <line x1="150" y1="715" x2="830" y2="715" stroke="#cbd5e1"/>
    <line x1="150" y1="485" x2="150" y2="715" stroke="#cbd5e1"/>
    <circle cx="334.6" cy="547.0" r="2.0" fill="#94a3b8" opacity="0.35"/>
    <circle cx="419.0" cy="555.9" r="2.0" fill="#94a3b8" opacity="0.35"/>
    <circle cx="344.5" cy="544.4" r="2.0" fill="#94a3b8" opacity="0.35"/>
    <circle cx="286.7" cy="551.5" r="2.0" fill="#94a3b8" opacity="0.35"/>
    <circle cx="366.4" cy="524.9" r="2.0" fill="#94a3b8" opacity="0.35"/>
    <circle cx="270.5" cy="571.3" r="2.0" fill="#94a3b8" opacity="0.35"/>
    <circle cx="269.9" cy="523.3" r="2.0" fill="#94a3b8" opacity="0.35"/>
    <circle cx="377.7" cy="596.0" r="2.0" fill="#94a3b8" opacity="0.35"/>
    <circle cx="429.4" cy="508.6" r="2.0" fill="#94a3b8" opacity="0.35"/>
    <circle cx="370.7" cy="541.7" r="2.0" fill="#94a3b8" opacity="0.35"/>
    <circle cx="281.8" cy="598.6" r="2.0" fill="#94a3b8" opacity="0.35"/>
    <circle cx="348.2" cy="594.4" r="2.0" fill="#94a3b8" opacity="0.35"/>
    <circle cx="287.7" cy="577.1" r="2.0" fill="#94a3b8" opacity="0.35"/>
    <circle cx="259.0" cy="556.1" r="2.0" fill="#94a3b8" opacity="0.35"/>
    <circle cx="332.5" cy="520.2" r="2.0" fill="#94a3b8" opacity="0.35"/>
    <circle cx="346.5" cy="539.4" r="2.0" fill="#94a3b8" opacity="0.35"/>
    <circle cx="343.1" cy="537.3" r="2.0" fill="#94a3b8" opacity="0.35"/>
    <circle cx="335.5" cy="573.7" r="2.0" fill="#94a3b8" opacity="0.35"/>
    <circle cx="432.2" cy="505.7" r="2.0" fill="#94a3b8" opacity="0.35"/>
    <circle cx="404.0" cy="533.0" r="2.0" fill="#94a3b8" opacity="0.35"/>
    <circle cx="310.1" cy="578.2" r="2.0" fill="#94a3b8" opacity="0.35"/>
    <circle cx="305.4" cy="593.3" r="2.0" fill="#94a3b8" opacity="0.35"/>
    <circle cx="390.8" cy="562.1" r="2.0" fill="#94a3b8" opacity="0.35"/>
    <circle cx="405.1" cy="563.4" r="2.0" fill="#94a3b8" opacity="0.35"/>
    <circle cx="425.1" cy="519.8" r="2.0" fill="#94a3b8" opacity="0.35"/>
    <circle cx="253.7" cy="580.1" r="2.0" fill="#94a3b8" opacity="0.35"/>
    <circle cx="416.5" cy="555.5" r="2.0" fill="#94a3b8" opacity="0.35"/>
    <circle cx="429.1" cy="562.4" r="2.0" fill="#94a3b8" opacity="0.35"/>
    <circle cx="266.7" cy="540.4" r="2.0" fill="#94a3b8" opacity="0.35"/>
    <circle cx="393.0" cy="574.5" r="2.0" fill="#94a3b8" opacity="0.35"/>
    <circle cx="269.2" cy="568.5" r="2.0" fill="#94a3b8" opacity="0.35"/>
    <circle cx="426.2" cy="528.2" r="2.0" fill="#94a3b8" opacity="0.35"/>
    <circle cx="274.8" cy="576.7" r="2.0" fill="#94a3b8" opacity="0.35"/>
    <circle cx="271.7" cy="594.3" r="2.0" fill="#94a3b8" opacity="0.35"/>
    <circle cx="396.3" cy="583.2" r="2.0" fill="#94a3b8" opacity="0.35"/>
    <circle cx="353.7" cy="557.6" r="2.0" fill="#94a3b8" opacity="0.35"/>
    <circle cx="287.8" cy="530.7" r="2.0" fill="#94a3b8" opacity="0.35"/>
    <circle cx="277.1" cy="539.0" r="2.0" fill="#94a3b8" opacity="0.35"/>
    <circle cx="274.5" cy="560.2" r="2.0" fill="#94a3b8" opacity="0.35"/>
    <circle cx="291.7" cy="574.4" r="2.0" fill="#94a3b8" opacity="0.35"/>
    <circle cx="550.0" cy="634.2" r="2.0" fill="#94a3b8" opacity="0.35"/>
    <circle cx="373.7" cy="629.5" r="2.0" fill="#94a3b8" opacity="0.35"/>
    <circle cx="349.0" cy="657.4" r="2.0" fill="#94a3b8" opacity="0.35"/>
    <circle cx="519.2" cy="643.4" r="2.0" fill="#94a3b8" opacity="0.35"/>
    <circle cx="319.9" cy="623.6" r="2.0" fill="#94a3b8" opacity="0.35"/>
    <circle cx="349.7" cy="665.1" r="2.0" fill="#94a3b8" opacity="0.35"/>
    <circle cx="497.6" cy="661.1" r="2.0" fill="#94a3b8" opacity="0.35"/>
    <circle cx="371.7" cy="675.7" r="2.0" fill="#94a3b8" opacity="0.35"/>
    <circle cx="317.2" cy="646.7" r="2.0" fill="#94a3b8" opacity="0.35"/>
    <circle cx="357.6" cy="645.7" r="2.0" fill="#94a3b8" opacity="0.35"/>
    <circle cx="391.6" cy="654.1" r="2.0" fill="#94a3b8" opacity="0.35"/>
    <circle cx="546.9" cy="652.3" r="2.0" fill="#94a3b8" opacity="0.35"/>
    <circle cx="445.2" cy="630.6" r="2.0" fill="#94a3b8" opacity="0.35"/>
    <circle cx="341.7" cy="671.1" r="2.0" fill="#94a3b8" opacity="0.35"/>
    <circle cx="533.5" cy="633.4" r="2.0" fill="#94a3b8" opacity="0.35"/>
    <circle cx="359.3" cy="669.0" r="2.0" fill="#94a3b8" opacity="0.35"/>
    <circle cx="488.8" cy="626.4" r="2.0" fill="#94a3b8" opacity="0.35"/>
    <circle cx="345.3" cy="625.8" r="2.0" fill="#94a3b8" opacity="0.35"/>
    <circle cx="526.5" cy="645.5" r="2.0" fill="#94a3b8" opacity="0.35"/>
    <circle cx="404.7" cy="673.9" r="2.0" fill="#94a3b8" opacity="0.35"/>
    <circle cx="303.6" cy="625.1" r="2.0" fill="#94a3b8" opacity="0.35"/>
    <circle cx="356.4" cy="639.8" r="2.0" fill="#94a3b8" opacity="0.35"/>
    <circle cx="361.3" cy="633.0" r="2.0" fill="#94a3b8" opacity="0.35"/>
    <circle cx="451.0" cy="663.1" r="2.0" fill="#94a3b8" opacity="0.35"/>
    <circle cx="339.7" cy="638.9" r="2.0" fill="#94a3b8" opacity="0.35"/>
    <circle cx="311.5" cy="666.8" r="2.0" fill="#94a3b8" opacity="0.35"/>
    <circle cx="441.2" cy="631.4" r="2.0" fill="#94a3b8" opacity="0.35"/>
    <circle cx="455.7" cy="663.9" r="2.0" fill="#94a3b8" opacity="0.35"/>
    <circle cx="535.8" cy="668.2" r="2.0" fill="#94a3b8" opacity="0.35"/>
    <circle cx="297.7" cy="664.5" r="2.0" fill="#94a3b8" opacity="0.35"/>
    <circle cx="411.2" cy="676.4" r="2.0" fill="#94a3b8" opacity="0.35"/>
    <circle cx="339.9" cy="658.9" r="2.0" fill="#94a3b8" opacity="0.35"/>
    <circle cx="444.6" cy="672.3" r="2.0" fill="#94a3b8" opacity="0.35"/>
    <circle cx="389.1" cy="629.2" r="2.0" fill="#94a3b8" opacity="0.35"/>
    <circle cx="552.5" cy="642.5" r="2.0" fill="#94a3b8" opacity="0.35"/>
    <circle cx="476.1" cy="646.6" r="2.0" fill="#94a3b8" opacity="0.35"/>
    <circle cx="330.4" cy="677.8" r="2.0" fill="#94a3b8" opacity="0.35"/>
    <circle cx="298.1" cy="628.1" r="2.0" fill="#94a3b8" opacity="0.35"/>
    <circle cx="478.6" cy="625.1" r="2.0" fill="#94a3b8" opacity="0.35"/>
    <circle cx="299.0" cy="643.7" r="2.0" fill="#94a3b8" opacity="0.35"/>
    <circle cx="420.8" cy="638.3" r="2.0" fill="#94a3b8" opacity="0.35"/>
    <circle cx="377.6" cy="623.0" r="2.0" fill="#94a3b8" opacity="0.35"/>
    <circle cx="313.2" cy="648.8" r="2.0" fill="#94a3b8" opacity="0.35"/>
    <circle cx="488.2" cy="628.7" r="2.0" fill="#94a3b8" opacity="0.35"/>
    <circle cx="488.2" cy="639.8" r="2.0" fill="#94a3b8" opacity="0.35"/>
    <circle cx="503.0" cy="627.8" r="2.0" fill="#94a3b8" opacity="0.35"/>
    <circle cx="386.3" cy="640.9" r="2.0" fill="#94a3b8" opacity="0.35"/>
    <circle cx="531.5" cy="630.3" r="2.0" fill="#94a3b8" opacity="0.35"/>
    <circle cx="403.6" cy="634.9" r="2.0" fill="#94a3b8" opacity="0.35"/>
    <circle cx="521.6" cy="647.3" r="2.0" fill="#94a3b8" opacity="0.35"/>
    <circle cx="458.5" cy="658.1" r="2.0" fill="#94a3b8" opacity="0.35"/>
    <circle cx="447.4" cy="645.2" r="2.0" fill="#94a3b8" opacity="0.35"/>
    <circle cx="314.5" cy="643.5" r="2.0" fill="#94a3b8" opacity="0.35"/>
    <circle cx="555.9" cy="629.8" r="2.0" fill="#94a3b8" opacity="0.35"/>
    <circle cx="485.8" cy="657.8" r="2.0" fill="#94a3b8" opacity="0.35"/>
    <circle cx="607.1" cy="689.6" r="2.0" fill="#94a3b8" opacity="0.35"/>
    <circle cx="494.0" cy="681.9" r="2.0" fill="#94a3b8" opacity="0.35"/>
    <circle cx="357.0" cy="684.6" r="2.0" fill="#94a3b8" opacity="0.35"/>
    <circle cx="336.3" cy="689.0" r="2.0" fill="#94a3b8" opacity="0.35"/>
    <circle cx="509.6" cy="700.0" r="2.0" fill="#94a3b8" opacity="0.35"/>
    <circle cx="593.0" cy="692.1" r="2.0" fill="#94a3b8" opacity="0.35"/>
    <circle cx="560.8" cy="679.5" r="2.0" fill="#94a3b8" opacity="0.35"/>
    <circle cx="423.1" cy="706.5" r="2.0" fill="#94a3b8" opacity="0.35"/>
    <circle cx="440.5" cy="686.7" r="2.0" fill="#94a3b8" opacity="0.35"/>
    <circle cx="402.7" cy="701.8" r="2.0" fill="#94a3b8" opacity="0.35"/>
    <circle cx="672.7" cy="687.2" r="2.0" fill="#94a3b8" opacity="0.35"/>
    <circle cx="494.6" cy="680.3" r="2.0" fill="#94a3b8" opacity="0.35"/>
    <circle cx="450.4" cy="687.1" r="2.0" fill="#94a3b8" opacity="0.35"/>
    <circle cx="401.1" cy="694.1" r="2.0" fill="#94a3b8" opacity="0.35"/>
    <circle cx="634.4" cy="679.7" r="2.0" fill="#94a3b8" opacity="0.35"/>
    <circle cx="662.9" cy="695.4" r="2.0" fill="#94a3b8" opacity="0.35"/>
    <circle cx="548.8" cy="697.5" r="2.0" fill="#94a3b8" opacity="0.35"/>
    <circle cx="377.2" cy="692.1" r="2.0" fill="#94a3b8" opacity="0.35"/>
    <circle cx="646.3" cy="681.6" r="2.0" fill="#94a3b8" opacity="0.35"/>
    <circle cx="598.0" cy="678.6" r="2.0" fill="#94a3b8" opacity="0.35"/>
    <circle cx="431.2" cy="701.8" r="2.0" fill="#94a3b8" opacity="0.35"/>
    <circle cx="497.9" cy="698.7" r="2.0" fill="#94a3b8" opacity="0.35"/>
    <circle cx="407.1" cy="694.6" r="2.0" fill="#94a3b8" opacity="0.35"/>
    <circle cx="565.2" cy="692.2" r="2.0" fill="#94a3b8" opacity="0.35"/>
    <circle cx="446.0" cy="681.9" r="2.0" fill="#94a3b8" opacity="0.35"/>
    <circle cx="702.0" cy="693.4" r="2.0" fill="#94a3b8" opacity="0.35"/>
    <circle cx="353.5" cy="705.9" r="2.0" fill="#94a3b8" opacity="0.35"/>
    <circle cx="660.1" cy="705.6" r="2.0" fill="#94a3b8" opacity="0.35"/>
    <circle cx="597.0" cy="689.9" r="2.0" fill="#94a3b8" opacity="0.35"/>
    <circle cx="443.5" cy="683.3" r="2.0" fill="#94a3b8" opacity="0.35"/>
    <circle cx="332.2" cy="702.8" r="2.0" fill="#94a3b8" opacity="0.35"/>
    <circle cx="499.5" cy="706.1" r="2.0" fill="#94a3b8" opacity="0.35"/>
    <circle cx="643.5" cy="699.8" r="2.0" fill="#94a3b8" opacity="0.35"/>
    <circle cx="379.0" cy="705.5" r="2.0" fill="#94a3b8" opacity="0.35"/>
    <circle cx="566.5" cy="693.6" r="2.0" fill="#94a3b8" opacity="0.35"/>
    <circle cx="566.8" cy="687.4" r="2.0" fill="#94a3b8" opacity="0.35"/>
    <circle cx="634.9" cy="678.4" r="2.0" fill="#94a3b8" opacity="0.35"/>
    <circle cx="587.7" cy="700.9" r="2.0" fill="#94a3b8" opacity="0.35"/>
    <circle cx="507.3" cy="701.6" r="2.0" fill="#94a3b8" opacity="0.35"/>
    <circle cx="329.0" cy="692.8" r="2.0" fill="#94a3b8" opacity="0.35"/>
    <circle cx="599.1" cy="701.6" r="2.0" fill="#94a3b8" opacity="0.35"/>
    <circle cx="429.4" cy="696.6" r="2.0" fill="#94a3b8" opacity="0.35"/>
    <circle cx="592.7" cy="691.4" r="2.0" fill="#94a3b8" opacity="0.35"/>
    <circle cx="560.8" cy="684.4" r="2.0" fill="#94a3b8" opacity="0.35"/>
    <circle cx="476.0" cy="683.3" r="2.0" fill="#94a3b8" opacity="0.35"/>
    <circle cx="672.9" cy="704.3" r="2.0" fill="#94a3b8" opacity="0.35"/>
    <circle cx="683.0" cy="685.4" r="2.0" fill="#94a3b8" opacity="0.35"/>
    <circle cx="374.7" cy="693.4" r="2.0" fill="#94a3b8" opacity="0.35"/>
    <circle cx="565.1" cy="679.8" r="2.0" fill="#94a3b8" opacity="0.35"/>
    <circle cx="469.6" cy="690.0" r="2.0" fill="#94a3b8" opacity="0.35"/>
    <circle cx="662.6" cy="683.2" r="2.0" fill="#94a3b8" opacity="0.35"/>
    <circle cx="687.5" cy="693.1" r="2.0" fill="#94a3b8" opacity="0.35"/>
    <circle cx="575.0" cy="700.8" r="2.0" fill="#94a3b8" opacity="0.35"/>
    <circle cx="602.1" cy="682.5" r="2.0" fill="#94a3b8" opacity="0.35"/>
    <circle cx="571.3" cy="685.5" r="2.0" fill="#94a3b8" opacity="0.35"/>
    <circle cx="406.8" cy="680.1" r="2.0" fill="#94a3b8" opacity="0.35"/>
    <circle cx="701.4" cy="677.8" r="2.0" fill="#94a3b8" opacity="0.35"/>
    <circle cx="531.1" cy="683.3" r="2.0" fill="#94a3b8" opacity="0.35"/>
    <circle cx="447.9" cy="679.8" r="2.0" fill="#94a3b8" opacity="0.35"/>
    <circle cx="653.5" cy="696.5" r="2.0" fill="#94a3b8" opacity="0.35"/>
    <circle cx="356.6" cy="693.8" r="2.0" fill="#94a3b8" opacity="0.35"/>
    <circle cx="536.2" cy="684.0" r="2.0" fill="#94a3b8" opacity="0.35"/>
    <circle cx="512.1" cy="706.0" r="2.0" fill="#94a3b8" opacity="0.35"/>
    <circle cx="635.6" cy="705.0" r="2.0" fill="#94a3b8" opacity="0.35"/>
    <circle cx="632.0" cy="701.7" r="2.0" fill="#94a3b8" opacity="0.35"/>
    <circle cx="453.5" cy="683.4" r="2.0" fill="#94a3b8" opacity="0.35"/>
    <circle cx="378.8" cy="702.5" r="2.0" fill="#94a3b8" opacity="0.35"/>
    <circle cx="523.2" cy="685.3" r="2.0" fill="#94a3b8" opacity="0.35"/>
    <circle cx="647.4" cy="686.4" r="2.0" fill="#94a3b8" opacity="0.35"/>
    <circle cx="688.1" cy="692.2" r="2.0" fill="#94a3b8" opacity="0.35"/>
    <circle cx="689.4" cy="704.3" r="2.0" fill="#94a3b8" opacity="0.35"/>
    <circle cx="409.9" cy="691.2" r="2.0" fill="#94a3b8" opacity="0.35"/>
    <circle cx="436.3" cy="685.2" r="2.0" fill="#94a3b8" opacity="0.35"/>
    <circle cx="570.2" cy="691.3" r="2.0" fill="#94a3b8" opacity="0.35"/>
    <circle cx="648.8" cy="690.2" r="2.0" fill="#94a3b8" opacity="0.35"/>
    <circle cx="444.6" cy="695.5" r="2.0" fill="#94a3b8" opacity="0.35"/>
    <circle cx="649.5" cy="680.1" r="2.0" fill="#94a3b8" opacity="0.35"/>
    <circle cx="404.8" cy="681.6" r="2.0" fill="#94a3b8" opacity="0.35"/>
    <circle cx="696.8" cy="691.3" r="2.0" fill="#94a3b8" opacity="0.35"/>
    <circle cx="544.9" cy="700.9" r="2.0" fill="#94a3b8" opacity="0.35"/>
    <circle cx="753.0" cy="619.8" r="2.0" fill="#94a3b8" opacity="0.35"/>
    <circle cx="764.0" cy="697.0" r="2.0" fill="#94a3b8" opacity="0.35"/>
    <circle cx="821.4" cy="617.7" r="2.0" fill="#94a3b8" opacity="0.35"/>
    <circle cx="731.7" cy="571.4" r="2.0" fill="#94a3b8" opacity="0.35"/>
    <circle cx="757.3" cy="621.7" r="2.0" fill="#94a3b8" opacity="0.35"/>
    <circle cx="777.5" cy="690.8" r="2.0" fill="#94a3b8" opacity="0.35"/>
    <circle cx="753.5" cy="634.3" r="2.0" fill="#94a3b8" opacity="0.35"/>
    <circle cx="819.4" cy="551.6" r="2.0" fill="#94a3b8" opacity="0.35"/>
    <circle cx="711.0" cy="624.7" r="2.0" fill="#94a3b8" opacity="0.35"/>
    <circle cx="688.6" cy="631.1" r="2.0" fill="#94a3b8" opacity="0.35"/>
    <circle cx="797.2" cy="555.3" r="2.0" fill="#94a3b8" opacity="0.35"/>
    <circle cx="743.7" cy="650.0" r="2.0" fill="#94a3b8" opacity="0.35"/>
    <circle cx="698.8" cy="601.2" r="2.0" fill="#94a3b8" opacity="0.35"/>
    <circle cx="814.4" cy="680.5" r="2.0" fill="#94a3b8" opacity="0.35"/>
    <circle cx="791.4" cy="697.8" r="2.0" fill="#94a3b8" opacity="0.35"/>
    <circle cx="699.2" cy="664.6" r="2.0" fill="#94a3b8" opacity="0.35"/>
    <circle cx="776.9" cy="649.2" r="2.0" fill="#94a3b8" opacity="0.35"/>
    <circle cx="724.6" cy="600.8" r="2.0" fill="#94a3b8" opacity="0.35"/>
    <circle cx="685.1" cy="582.8" r="2.0" fill="#94a3b8" opacity="0.35"/>
    <circle cx="687.9" cy="618.6" r="2.0" fill="#94a3b8" opacity="0.35"/>
    <circle cx="708.1" cy="669.4" r="2.0" fill="#94a3b8" opacity="0.35"/>
    <circle cx="752.2" cy="630.6" r="2.0" fill="#94a3b8" opacity="0.35"/>
    <circle cx="727.8" cy="634.4" r="2.0" fill="#94a3b8" opacity="0.35"/>
    <circle cx="752.0" cy="675.5" r="2.0" fill="#94a3b8" opacity="0.35"/>
    <circle cx="265.0" cy="692.2" r="2.0" fill="#94a3b8" opacity="0.35"/>
    <circle cx="319.3" cy="694.1" r="2.0" fill="#94a3b8" opacity="0.35"/>
    <circle cx="345.9" cy="692.6" r="2.0" fill="#94a3b8" opacity="0.35"/>
    <circle cx="346.6" cy="699.8" r="2.0" fill="#94a3b8" opacity="0.35"/>
    <circle cx="332.1" cy="688.8" r="2.0" fill="#94a3b8" opacity="0.35"/>
    <circle cx="352.4" cy="698.2" r="2.0" fill="#94a3b8" opacity="0.35"/>
    <circle cx="278.9" cy="686.7" r="2.0" fill="#94a3b8" opacity="0.35"/>
    <circle cx="266.8" cy="685.3" r="2.0" fill="#94a3b8" opacity="0.35"/>
    <circle cx="350.5" cy="701.6" r="2.0" fill="#94a3b8" opacity="0.35"/>
    <circle cx="269.4" cy="690.4" r="2.0" fill="#94a3b8" opacity="0.35"/>
    <circle cx="271.9" cy="702.3" r="2.0" fill="#94a3b8" opacity="0.35"/>
    <circle cx="343.6" cy="696.2" r="2.0" fill="#94a3b8" opacity="0.35"/>
    <circle cx="338.3" cy="701.8" r="2.0" fill="#94a3b8" opacity="0.35"/>
    <circle cx="289.9" cy="691.2" r="2.0" fill="#94a3b8" opacity="0.35"/>
    <circle cx="619.6" cy="699.6" r="3.5" fill="#7c3aed" stroke="#ffffff" stroke-width="0.8" opacity="0.95"/>
    <circle cx="687.0" cy="685.6" r="3.5" fill="#7c3aed" stroke="#ffffff" stroke-width="0.8" opacity="0.95"/>
    <circle cx="716.1" cy="701.2" r="3.5" fill="#7c3aed" stroke="#ffffff" stroke-width="0.8" opacity="0.95"/>
    <circle cx="669.1" cy="688.6" r="3.5" fill="#7c3aed" stroke="#ffffff" stroke-width="0.8" opacity="0.95"/>
    <circle cx="668.8" cy="690.0" r="3.5" fill="#7c3aed" stroke="#ffffff" stroke-width="0.8" opacity="0.95"/>
    <circle cx="636.9" cy="702.1" r="3.5" fill="#7c3aed" stroke="#ffffff" stroke-width="0.8" opacity="0.95"/>
    <circle cx="628.5" cy="702.8" r="3.5" fill="#7c3aed" stroke="#ffffff" stroke-width="0.8" opacity="0.95"/>
    <circle cx="673.8" cy="693.4" r="3.5" fill="#7c3aed" stroke="#ffffff" stroke-width="0.8" opacity="0.95"/>
    <circle cx="675.5" cy="700.6" r="3.5" fill="#7c3aed" stroke="#ffffff" stroke-width="0.8" opacity="0.95"/>
    <circle cx="636.5" cy="699.5" r="3.5" fill="#7c3aed" stroke="#ffffff" stroke-width="0.8" opacity="0.95"/>
    <circle cx="703.1" cy="684.1" r="3.5" fill="#7c3aed" stroke="#ffffff" stroke-width="0.8" opacity="0.95"/>
    <circle cx="711.9" cy="701.6" r="3.5" fill="#7c3aed" stroke="#ffffff" stroke-width="0.8" opacity="0.95"/>
    <circle cx="624.0" cy="684.8" r="3.5" fill="#7c3aed" stroke="#ffffff" stroke-width="0.8" opacity="0.95"/>
    <rect x="650" y="485" width="128" height="42" rx="6" fill="#ffffff" opacity="0.85"/>
    <circle cx="662" cy="497" r="2.4" fill="#94a3b8" opacity="0.6"/>
    <text x="672" y="500.5" font-size="11" fill="#64748b">all confirmed</text>
    <circle cx="662" cy="515" r="3.4" fill="#7c3aed"/>
    <text x="672" y="518.5" font-size="11" fill="#64748b">habitable zone</text>
    <text x="490" y="749" text-anchor="middle" font-size="11.5" fill="#64748b">orbital period (days)</text>
    <text x="106" y="600" font-size="11.5" fill="#64748b" transform="rotate(-90 106 600)" text-anchor="middle">radius (R⊕)</text>
  </g>
  <text x="852" y="749" font-size="12.5" fill="#94a3b8">412ms</text>
  <g stroke="#94a3b8" stroke-width="1.3" fill="none" stroke-linecap="round">
    <line x1="888" y1="740" x2="900" y2="740"/><line x1="888" y1="745" x2="897" y2="745"/><line x1="888" y1="750" x2="900" y2="750"/>
  </g>
  <line x1="6" y1="806" x2="934" y2="806" stroke="#e5e9f0"/>
  <text x="34" y="828" font-size="12.5" fill="#64748b" font-family="ui-monospace, Menlo, monospace">&gt;_ exoplanets</text>
  <rect x="148" y="812" width="86" height="24" rx="7" fill="#ffffff" stroke="#dde3ec"/>
  <g transform="translate(160,817)">
    <rect x="0" y="2.4" width="12" height="9.6" rx="2.8" fill="none" stroke="#9d2ce8" stroke-width="1.4"/>
    <line x1="6" y1="2.4" x2="6" y2="0.4" stroke="#9d2ce8" stroke-width="1.4"/>
    <circle cx="3.7" cy="7" r="1" fill="#9d2ce8"/>
    <circle cx="8.3" cy="7" r="1" fill="#9d2ce8"/>
  </g>
  <text x="178" y="828" font-size="12.5" fill="#9d2ce8" font-weight="600">Agent</text>
  <circle cx="222" cy="823" r="3.2" fill="#22c55e"/>
  <text x="912" y="829" text-anchor="end" font-size="15" fill="#94a3b8">×</text>
  <rect x="6" y="842" width="928" height="27" fill="#f0fdf4"/>
  <circle cx="32" cy="855" r="4" fill="#22c55e"/>
  <text x="46" y="860" font-size="13" fill="#166534">Agent active (claude) · driving <tspan font-weight="700">exoplanets</tspan> — type instructions here, or use “Fix with agent” on a failing cell</text>
  <text x="912" y="860" text-anchor="end" font-size="12.5" fill="#16a34a" text-decoration="underline">agent exited?</text>
  <line x1="6" y1="869" x2="934" y2="869" stroke="#dcfce7"/>
  <g font-family="ui-monospace, SFMono-Regular, Menlo, monospace" font-size="12.5">
    <text x="34" y="896" fill="#1e293b">Plotted all <tspan fill="#67b7f7">5,632</tspan> confirmed planets — radius vs orbital period, log x. The violet points are the</text>
    <text x="34" y="916" fill="#1e293b"><tspan fill="#67b7f7">24</tspan> habitable-zone candidates; that band near 200–400 days is Kepler's sweet spot.</text>
    <text x="34" y="944" fill="#94a3b8">✻ Worked for 32s</text>
  </g>
  <line x1="30" y1="958" x2="910" y2="958" stroke="#e5e9f0"/>
  <g font-family="ui-monospace, Menlo, monospace" font-size="12.5">
    <text x="34" y="978" fill="#334155">❯ </text>
    <rect x="49" y="967" width="7.5" height="14" fill="#334155"/>
    <text x="50" y="978" fill="#ffffff">c</text>
    <text x="57" y="978" fill="#334155">ircle the most Earth-like one and label it</text>
  </g>
  <line x1="30" y1="988" x2="910" y2="988" stroke="#e5e9f0"/>
  <g font-family="ui-monospace, Menlo, monospace" font-size="12">
    <polygon points="34,997 34,1005 40,1001" fill="#dc2626"/>
    <polygon points="41,997 41,1005 47,1001" fill="#dc2626"/>
    <text x="52" y="1005" fill="#dc2626">bypass permissions on <tspan fill="#64748b">(shift+tab to cycle) · ← for agents</tspan></text>
  </g>
  <path d="M6 1096 h928 v20 a12 12 0 0 1 -12 12 h-904 a12 12 0 0 1 -12 -12 z" fill="#f8fafc"/>
  <line x1="6" y1="1096" x2="934" y2="1096" stroke="#e5e9f0"/>
  <rect x="22" y="1101" width="92" height="22" rx="5" fill="#e9edf3"/>
  <text x="36" y="1116" font-size="12" fill="#475569" font-family="ui-monospace, Menlo, monospace">&gt;_ Terminal</text>
  <g stroke="#64748b" stroke-width="1.3" fill="none">
    <circle cx="134" cy="1112" r="6"/>
    <polyline points="134,1108 134,1112 137,1114"/>
  </g>
  <text x="146" y="1116" font-size="12" fill="#64748b">History</text>
  <g stroke="#64748b" stroke-width="1.3" fill="none" stroke-linejoin="round">
    <polyline points="772,1110 778,1107 784,1110 778,1113 772,1110"/>
    <polyline points="772,1113 778,1116 784,1113"/>
  </g>
  <text x="790" y="1116" font-size="12" fill="#64748b">1 cells</text>
  <g stroke="#64748b" stroke-width="1.3" fill="none">
    <rect x="846" y="1106" width="18" height="12" rx="2"/>
    <line x1="850" y1="1112" x2="852" y2="1112"/><line x1="855" y1="1112" x2="857" y2="1112"/>
  </g>
  <text x="870" y="1116" font-size="12" fill="#64748b">86 MB</text>
</svg>