<svg xmlns="http://www.w3.org/2000/svg" viewBox="0 0 940 1086" font-family="-apple-system, BlinkMacSystemFont, 'Segoe UI', Helvetica, Arial, sans-serif">
  <defs>
    <filter id="cardShadow" x="-3%" y="-3%" width="106%" height="107%">
      <feDropShadow dx="0" dy="4" stdDeviation="10" flood-color="#0f172a" flood-opacity="0.14"/>
    </filter>
  </defs>
  <g filter="url(#cardShadow)">
    <rect x="6" y="6" width="928" height="1074" rx="12" fill="#ffffff" stroke="#e5e9f0"/>
  </g>
  <g transform="translate(36.0,35.0) scale(0.8333)" fill="none" stroke="#334155" stroke-width="2" stroke-linecap="round" stroke-linejoin="round">
      <path d="M4 5h16"/>
      <path d="M4 12h16"/>
      <path d="M4 19h16"/>
    </g>
  <text x="74" y="53" font-size="22" font-weight="700" fill="#0f172a">exoplanets</text>
  <rect x="196" y="34" width="60" height="24" rx="6" fill="#f1f5f9"/>
  <text x="226" y="50" text-anchor="middle" font-size="12" fill="#94a3b8">.ipynb</text>
  <circle cx="82" cy="81" r="4.5" fill="#22c55e"/>
  <text x="93" y="86" font-size="13.5" fill="#334155">Python 3.12 (Nebula)</text>
  <g transform="translate(235.0,74.0) scale(0.5833)" fill="none" stroke="#94a3b8" stroke-width="2" stroke-linecap="round" stroke-linejoin="round">
      <path d="m6 9 6 6 6-6"/>
    </g>
  <g transform="translate(256.5,73.5) scale(0.6250)" fill="none" stroke="#16a34a" stroke-width="2.5" stroke-linecap="round" stroke-linejoin="round">
      <path d="M20 6 9 17l-5-5"/>
    </g>
  <text x="277" y="86" font-size="13.5" fill="#94a3b8">2m ago</text>
  <g transform="translate(340.5,73.5) scale(0.6250)" fill="none" stroke="#16a34a" stroke-width="2" stroke-linecap="round" stroke-linejoin="round">
      <circle cx="12" cy="12" r="10"/>
      <path d="m9 12 2 2 4-4"/>
    </g>
  <text x="360" y="86" font-size="13.5" fill="#16a34a">#1 0.4s</text>
  <g transform="translate(434.5,35.5) scale(0.7917)" fill="none" stroke="#475569" stroke-width="2" stroke-linecap="round" stroke-linejoin="round">
      <path d="M9 14 4 9l5-5"/>
      <path d="M4 9h10.5a5.5 5.5 0 0 1 5.5 5.5a5.5 5.5 0 0 1-5.5 5.5H11"/>
    </g>
  <g transform="translate(464.5,35.5) scale(0.7917)" fill="none" stroke="#475569" stroke-width="2" stroke-linecap="round" stroke-linejoin="round">
      <path d="m15 14 5-5-5-5"/>
      <path d="M20 9H9.5A5.5 5.5 0 0 0 4 14.5A5.5 5.5 0 0 0 9.5 20H13"/>
    </g>
  <line x1="496" y1="33" x2="496" y2="57" stroke="#e2e8f0"/>
  <g transform="translate(511.5,34.5) scale(0.8750)" fill="none" stroke="#475569" stroke-width="2" stroke-linecap="round" stroke-linejoin="round">
      <path d="M10 8h.01"/>
      <path d="M12 12h.01"/>
      <path d="M14 8h.01"/>
      <path d="M16 12h.01"/>
      <path d="M18 8h.01"/>
      <path d="M6 8h.01"/>
      <path d="M7 16h10"/>
      <path d="M8 12h.01"/>
      <rect width="20" height="16" x="2" y="4" rx="2"/>
    </g>
  <rect x="544" y="32" width="27" height="26" rx="7" fill="#f0fdf4" stroke="#4ade80" stroke-width="1.3"/>
  <g transform="translate(549.0,36.5) scale(0.7083)" fill="none" stroke="#16a34a" stroke-width="2" stroke-linecap="round" stroke-linejoin="round">
      <path d="m10 10-6.157 6.162a2 2 0 0 0-.5.833l-1.322 4.36a.5.5 0 0 0 .622.624l4.358-1.323a2 2 0 0 0 .83-.5L14 13.982"/>
      <path d="m12.829 7.172 4.359-4.346a1 1 0 1 1 3.986 3.986l-4.353 4.353"/>
      <path d="m15 5 4 4"/>
      <path d="m2 2 20 20"/>
    </g>
  <g transform="translate(583.0,36.0) scale(0.7500)" fill="none" stroke="#475569" stroke-width="2" stroke-linecap="round" stroke-linejoin="round">
      <path d="M15 3h6v6"/>
      <path d="m21 3-7 7"/>
      <path d="m3 21 7-7"/>
      <path d="M9 21H3v-6"/>
    </g>
  <g transform="translate(614.5,35.5) scale(0.7917)" fill="none" stroke="#475569" stroke-width="2" stroke-linecap="round" stroke-linejoin="round">
      <circle cx="12" cy="12" r="10"/>
      <line x1="22" x2="18" y1="12" y2="12"/>
      <line x1="6" x2="2" y1="12" y2="12"/>
      <line x1="12" x2="12" y1="6" y2="2"/>
      <line x1="12" x2="12" y1="22" y2="18"/>
    </g>
  <g transform="translate(644.5,35.5) scale(0.7917)" fill="none" stroke="#475569" stroke-width="2" stroke-linecap="round" stroke-linejoin="round">
      <path d="M15.2 3a2 2 0 0 1 1.4.6l3.8 3.8a2 2 0 0 1 .6 1.4V19a2 2 0 0 1-2 2H5a2 2 0 0 1-2-2V5a2 2 0 0 1 2-2z"/>
      <path d="M17 21v-7a1 1 0 0 0-1-1H8a1 1 0 0 0-1 1v7"/>
      <path d="M7 3v4a1 1 0 0 0 1 1h7"/>
    </g>
  <text x="668" y="50" font-size="14.5" fill="#334155">Save</text>
  <rect x="724" y="28" width="94" height="34" rx="10" fill="#0f172a"/>
  <g transform="translate(736.0,37.0) scale(0.6667)" fill="none" stroke="#ffffff" stroke-width="2" stroke-linecap="round" stroke-linejoin="round">
      <path d="M5 5a2 2 0 0 1 3.008-1.728l11.997 6.998a2 2 0 0 1 .003 3.458l-12 7A2 2 0 0 1 5 19z"/>
    </g>
  <text x="756" y="50" font-size="14.5" fill="#ffffff" font-weight="600">Run All</text>
  <rect x="828" y="28" width="82" height="34" rx="10" fill="#9d2ce8"/>
  <g transform="translate(838.5,36.5) scale(0.7083)" fill="none" stroke="#ffffff" stroke-width="2" stroke-linecap="round" stroke-linejoin="round">
      <path d="M12 8V4H8"/>
      <rect width="16" height="12" x="4" y="8" rx="2"/>
      <path d="M2 14h2"/>
      <path d="M20 14h2"/>
      <path d="M15 13v2"/>
      <path d="M9 13v2"/>
    </g>
  <text x="860" y="50" font-size="14.5" fill="#ffffff" font-weight="600">Agent</text>
  <rect x="30" y="106" width="880" height="700" rx="11" fill="#ffffff" stroke="#e5e9f0"/>
  <g font-family="ui-monospace, SFMono-Regular, Menlo, monospace">
    <text x="50" y="134" font-size="12" fill="#94a3b8">#1</text>
    <text x="72" y="134" font-size="12" fill="#16a34a">[1]</text>
  </g>
  <g transform="translate(99.0,122.0) scale(0.5833)" fill="none" stroke="#64748b" stroke-width="1.9" stroke-linecap="round" stroke-linejoin="round">
      <path d="M5 5a2 2 0 0 1 3.008-1.728l11.997 6.998a2 2 0 0 1 .003 3.458l-12 7A2 2 0 0 1 5 19z"/>
    </g>
  <g transform="translate(126.0,122.0) scale(0.5833)" fill="none" stroke="#64748b" stroke-width="1.9" stroke-linecap="round" stroke-linejoin="round">
      <rect width="18" height="18" x="3" y="3" rx="2"/>
    </g>
  <g transform="translate(153.0,122.0) scale(0.5833)" fill="none" stroke="#64748b" stroke-width="1.9" stroke-linecap="round" stroke-linejoin="round">
      <path d="m5 12 7-7 7 7"/>
      <path d="M12 19V5"/>
    </g>
  <g transform="translate(180.0,122.0) scale(0.5833)" fill="none" stroke="#64748b" stroke-width="1.9" stroke-linecap="round" stroke-linejoin="round">
      <path d="M12 5v14"/>
      <path d="m19 12-7 7-7-7"/>
    </g>
  <g transform="translate(207.0,122.0) scale(0.5833)" fill="none" stroke="#64748b" stroke-width="1.9" stroke-linecap="round" stroke-linejoin="round">
      <path d="M10 11v6"/>
      <path d="M14 11v6"/>
      <path d="M19 6v14a2 2 0 0 1-2 2H7a2 2 0 0 1-2-2V6"/>
      <path d="M3 6h18"/>
      <path d="M8 6V4a2 2 0 0 1 2-2h4a2 2 0 0 1 2 2v2"/>
    </g>
  <g transform="translate(234.0,122.0) scale(0.5833)" fill="none" stroke="#64748b" stroke-width="1.9" stroke-linecap="round" stroke-linejoin="round">
      <path d="M5 12h14"/>
      <path d="M12 5v14"/>
    </g>
  <rect x="748" y="117" width="76" height="25" rx="6" fill="#ffffff" stroke="#dde3ec"/>
  <g transform="translate(759.5,122.5) scale(0.5417)" fill="none" stroke="#1e293b" stroke-width="2" stroke-linecap="round" stroke-linejoin="round">
      <path d="m16 18 6-6-6-6"/>
      <path d="m8 6-6 6 6 6"/>
    </g>
  <text x="777" y="134" font-size="12" fill="#1e293b">Code</text>
  <g transform="translate(837.5,122.5) scale(0.5417)" fill="none" stroke="#94a3b8" stroke-width="2" stroke-linecap="round" stroke-linejoin="round">
      <path d="M6 22a2 2 0 0 1-2-2V4a2 2 0 0 1 2-2h8a2.4 2.4 0 0 1 1.704.706l3.588 3.588A2.4 2.4 0 0 1 20 8v12a2 2 0 0 1-2 2z"/>
      <path d="M14 2v5a1 1 0 0 0 1 1h5"/>
      <path d="M10 9H8"/>
      <path d="M16 13H8"/>
      <path d="M16 17H8"/>
    </g>
  <text x="855" y="134" font-size="12" fill="#94a3b8">Text</text>
  <g font-family="ui-monospace, SFMono-Regular, Menlo, monospace" font-size="13">
    <text x="56" y="168"><tspan fill="#c2563c"># 5,632 confirmed exoplanets — where do worlds like ours hide?</tspan></text>
    <text x="56" y="210"><tspan fill="#a626a4">import</tspan><tspan fill="#1e293b"> pandas </tspan><tspan fill="#a626a4">as</tspan><tspan fill="#1e293b"> pd</tspan></text>
    <text x="56" y="231"><tspan fill="#a626a4">import</tspan><tspan fill="#1e293b"> matplotlib.pyplot </tspan><tspan fill="#a626a4">as</tspan><tspan fill="#1e293b"> plt</tspan></text>
    <text x="56" y="273"><tspan fill="#1e293b">df = pd.read_csv(</tspan><tspan fill="#b3403a">"exoplanets.csv"</tspan><tspan fill="#1e293b">)</tspan></text>
    <text x="56" y="294"><tspan fill="#1e293b">palette = {</tspan><tspan fill="#b3403a">"transit"</tspan><tspan fill="#1e293b">: </tspan><tspan fill="#b3403a">"#38bdf8"</tspan><tspan fill="#1e293b">, </tspan><tspan fill="#b3403a">"radial velocity"</tspan><tspan fill="#1e293b">: </tspan><tspan fill="#b3403a">"#f59e0b"</tspan><tspan fill="#1e293b">, </tspan><tspan fill="#b3403a">"imaging"</tspan><tspan fill="#1e293b">: </tspan><tspan fill="#b3403a">"#f472b6"</tspan><tspan fill="#1e293b">}</tspan></text>
    <text x="56" y="336"><tspan fill="#1e293b">fig, ax = plt.subplots(figsize=(</tspan><tspan fill="#0d9488">9</tspan><tspan fill="#1e293b">, </tspan><tspan fill="#0d9488">4.5</tspan><tspan fill="#1e293b">))</tspan></text>
    <text x="56" y="357"><tspan fill="#1e293b">ax.scatter(df.period_days, df.radius_earth, s=</tspan><tspan fill="#0d9488">10</tspan><tspan fill="#1e293b">, alpha=</tspan><tspan fill="#0d9488">.6</tspan><tspan fill="#1e293b">, c=df.method.map(palette))</tspan></text>
    <text x="56" y="378"><tspan fill="#1e293b">hz = df[df.in_habitable_zone]</tspan></text>
    <text x="56" y="399"><tspan fill="#1e293b">ax.scatter(hz.period_days, hz.radius_earth, s=</tspan><tspan fill="#0d9488">90</tspan><tspan fill="#1e293b">, fc=</tspan><tspan fill="#b3403a">"none"</tspan><tspan fill="#1e293b">, ec=</tspan><tspan fill="#b3403a">"#7c3aed"</tspan><tspan fill="#1e293b">, lw=</tspan><tspan fill="#0d9488">1.6</tspan><tspan fill="#1e293b">)</tspan></text>
    <text x="56" y="420"><tspan fill="#1e293b">ax.annotate(</tspan><tspan fill="#b3403a">"Kepler-452b — the most Earth-like"</tspan><tspan fill="#1e293b">, xy=(</tspan><tspan fill="#0d9488">385</tspan><tspan fill="#1e293b">, </tspan><tspan fill="#0d9488">1.6</tspan><tspan fill="#1e293b">), xytext=(</tspan><tspan fill="#0d9488">30</tspan><tspan fill="#1e293b">, </tspan><tspan fill="#0d9488">8</tspan><tspan fill="#1e293b">),</tspan></text>
    <text x="56" y="441"><tspan x="120" fill="#1e293b">arrowprops=dict(arrowstyle=</tspan><tspan fill="#b3403a">"->"</tspan><tspan fill="#1e293b">))</tspan></text>
    <text x="56" y="462"><tspan fill="#1e293b">ax.set(xscale=</tspan><tspan fill="#b3403a">"log"</tspan><tspan fill="#1e293b">, xlabel=</tspan><tspan fill="#b3403a">"orbital period (days)"</tspan><tspan fill="#1e293b">, ylabel=</tspan><tspan fill="#b3403a">"radius (R⊕)"</tspan><tspan fill="#1e293b">)</tspan></text>
  </g>
  <line x1="30" y1="491" x2="910" y2="491" stroke="#eef2f7"/>
  <g transform="translate(47.0,500.0) scale(0.5833)" fill="none" stroke="#94a3b8" stroke-width="2" stroke-linecap="round" stroke-linejoin="round">
      <path d="m6 9 6 6 6-6"/>
    </g>
  <g>
    <line x1="239" y1="521" x2="239" y2="743" stroke="#f1f5f9"/>
    <text x="239" y="759" text-anchor="middle" font-size="10.5" fill="#94a3b8">1</text>
    <line x1="418" y1="521" x2="418" y2="743" stroke="#f1f5f9"/>
    <text x="418" y="759" text-anchor="middle" font-size="10.5" fill="#94a3b8">10</text>
    <line x1="597" y1="521" x2="597" y2="743" stroke="#f1f5f9"/>
    <text x="597" y="759" text-anchor="middle" font-size="10.5" fill="#94a3b8">100</text>
    <line x1="776" y1="521" x2="776" y2="743" stroke="#f1f5f9"/>
    <text x="776" y="759" text-anchor="middle" font-size="10.5" fill="#94a3b8">1000</text>
    <line x1="150" y1="743" x2="830" y2="743" stroke="#f1f5f9"/>
    <text x="142" y="746" text-anchor="end" font-size="10.5" fill="#94a3b8">0</text>
    <line x1="150" y1="691" x2="830" y2="691" stroke="#f1f5f9"/>
    <text x="142" y="694" text-anchor="end" font-size="10.5" fill="#94a3b8">4</text>
    <line x1="150" y1="639" x2="830" y2="639" stroke="#f1f5f9"/>
    <text x="142" y="642" text-anchor="end" font-size="10.5" fill="#94a3b8">8</text>
    <line x1="150" y1="586" x2="830" y2="586" stroke="#f1f5f9"/>
    <text x="142" y="590" text-anchor="end" font-size="10.5" fill="#94a3b8">12</text>
    <line x1="150" y1="534" x2="830" y2="534" stroke="#f1f5f9"/>
    <text x="142" y="538" text-anchor="end" font-size="10.5" fill="#94a3b8">16</text>
    <line x1="150" y1="743" x2="830" y2="743" stroke="#cbd5e1"/>
    <line x1="150" y1="521" x2="150" y2="743" stroke="#cbd5e1"/>
    <circle cx="334.6" cy="580.8" r="2.1" fill="#38bdf8" opacity="0.6"/>
    <circle cx="419.0" cy="589.4" r="2.1" fill="#38bdf8" opacity="0.6"/>
    <circle cx="344.5" cy="578.3" r="2.1" fill="#38bdf8" opacity="0.6"/>
    <circle cx="286.7" cy="585.2" r="2.1" fill="#38bdf8" opacity="0.6"/>
    <circle cx="366.4" cy="559.5" r="2.1" fill="#38bdf8" opacity="0.6"/>
    <circle cx="270.5" cy="604.3" r="2.1" fill="#38bdf8" opacity="0.6"/>
    <circle cx="269.9" cy="558.0" r="2.1" fill="#38bdf8" opacity="0.6"/>
    <circle cx="377.7" cy="628.2" r="2.1" fill="#38bdf8" opacity="0.6"/>
    <circle cx="429.4" cy="543.8" r="2.1" fill="#38bdf8" opacity="0.6"/>
    <circle cx="370.7" cy="575.7" r="2.1" fill="#38bdf8" opacity="0.6"/>
    <circle cx="281.8" cy="630.6" r="2.1" fill="#38bdf8" opacity="0.6"/>
    <circle cx="348.2" cy="626.6" r="2.1" fill="#38bdf8" opacity="0.6"/>
    <circle cx="287.7" cy="609.9" r="2.1" fill="#38bdf8" opacity="0.6"/>
    <circle cx="259.0" cy="589.6" r="2.1" fill="#38bdf8" opacity="0.6"/>
    <circle cx="332.5" cy="555.0" r="2.1" fill="#38bdf8" opacity="0.6"/>
    <circle cx="346.5" cy="573.5" r="2.1" fill="#38bdf8" opacity="0.6"/>
    <circle cx="343.1" cy="571.4" r="2.1" fill="#38bdf8" opacity="0.6"/>
    <circle cx="335.5" cy="606.6" r="2.1" fill="#38bdf8" opacity="0.6"/>
    <circle cx="432.2" cy="541.0" r="2.1" fill="#38bdf8" opacity="0.6"/>
    <circle cx="404.0" cy="567.3" r="2.1" fill="#38bdf8" opacity="0.6"/>
    <circle cx="310.1" cy="611.0" r="2.1" fill="#38bdf8" opacity="0.6"/>
    <circle cx="305.4" cy="625.6" r="2.1" fill="#38bdf8" opacity="0.6"/>
    <circle cx="390.8" cy="595.4" r="2.1" fill="#38bdf8" opacity="0.6"/>
    <circle cx="405.1" cy="596.7" r="2.1" fill="#38bdf8" opacity="0.6"/>
    <circle cx="425.1" cy="554.5" r="2.1" fill="#38bdf8" opacity="0.6"/>
    <circle cx="253.7" cy="612.8" r="2.1" fill="#38bdf8" opacity="0.6"/>
    <circle cx="416.5" cy="589.0" r="2.1" fill="#38bdf8" opacity="0.6"/>
    <circle cx="429.1" cy="595.7" r="2.1" fill="#38bdf8" opacity="0.6"/>
    <circle cx="266.7" cy="574.5" r="2.1" fill="#38bdf8" opacity="0.6"/>
    <circle cx="393.0" cy="607.3" r="2.1" fill="#38bdf8" opacity="0.6"/>
    <circle cx="269.2" cy="601.6" r="2.1" fill="#38bdf8" opacity="0.6"/>
    <circle cx="426.2" cy="562.7" r="2.1" fill="#38bdf8" opacity="0.6"/>
    <circle cx="274.8" cy="609.5" r="2.1" fill="#38bdf8" opacity="0.6"/>
    <circle cx="271.7" cy="626.5" r="2.1" fill="#38bdf8" opacity="0.6"/>
    <circle cx="504.0" cy="699.3" r="2.1" fill="#38bdf8" opacity="0.6"/>
    <circle cx="441.2" cy="684.5" r="2.1" fill="#38bdf8" opacity="0.6"/>
    <circle cx="343.7" cy="668.9" r="2.1" fill="#38bdf8" opacity="0.6"/>
    <circle cx="328.0" cy="673.7" r="2.1" fill="#38bdf8" opacity="0.6"/>
    <circle cx="324.1" cy="686.0" r="2.1" fill="#38bdf8" opacity="0.6"/>
    <circle cx="349.6" cy="694.2" r="2.1" fill="#38bdf8" opacity="0.6"/>
    <circle cx="550.0" cy="665.0" r="2.1" fill="#38bdf8" opacity="0.6"/>
    <circle cx="373.7" cy="660.5" r="2.1" fill="#38bdf8" opacity="0.6"/>
    <circle cx="349.0" cy="687.4" r="2.1" fill="#38bdf8" opacity="0.6"/>
    <circle cx="519.2" cy="673.8" r="2.1" fill="#38bdf8" opacity="0.6"/>
    <circle cx="319.9" cy="654.8" r="2.1" fill="#38bdf8" opacity="0.6"/>
    <circle cx="349.7" cy="694.9" r="2.1" fill="#38bdf8" opacity="0.6"/>
    <circle cx="497.6" cy="691.0" r="2.1" fill="#38bdf8" opacity="0.6"/>
    <circle cx="371.7" cy="705.0" r="2.1" fill="#38bdf8" opacity="0.6"/>
    <circle cx="317.2" cy="677.1" r="2.1" fill="#38bdf8" opacity="0.6"/>
    <circle cx="357.6" cy="676.1" r="2.1" fill="#38bdf8" opacity="0.6"/>
    <circle cx="391.6" cy="684.2" r="2.1" fill="#38bdf8" opacity="0.6"/>
    <circle cx="546.9" cy="682.5" r="2.1" fill="#38bdf8" opacity="0.6"/>
    <circle cx="445.2" cy="661.5" r="2.1" fill="#38bdf8" opacity="0.6"/>
    <circle cx="341.7" cy="700.6" r="2.1" fill="#38bdf8" opacity="0.6"/>
    <circle cx="533.5" cy="664.2" r="2.1" fill="#38bdf8" opacity="0.6"/>
    <circle cx="359.3" cy="698.6" r="2.1" fill="#38bdf8" opacity="0.6"/>
    <circle cx="488.8" cy="657.5" r="2.1" fill="#38bdf8" opacity="0.6"/>
    <circle cx="345.3" cy="656.9" r="2.1" fill="#38bdf8" opacity="0.6"/>
    <circle cx="526.5" cy="675.9" r="2.1" fill="#38bdf8" opacity="0.6"/>
    <circle cx="404.7" cy="703.4" r="2.1" fill="#38bdf8" opacity="0.6"/>
    <circle cx="303.6" cy="656.2" r="2.1" fill="#38bdf8" opacity="0.6"/>
    <circle cx="356.4" cy="670.4" r="2.1" fill="#38bdf8" opacity="0.6"/>
    <circle cx="361.3" cy="663.9" r="2.1" fill="#38bdf8" opacity="0.6"/>
    <circle cx="451.0" cy="693.0" r="2.1" fill="#38bdf8" opacity="0.6"/>
    <circle cx="339.7" cy="669.5" r="2.1" fill="#38bdf8" opacity="0.6"/>
    <circle cx="311.5" cy="696.5" r="2.1" fill="#38bdf8" opacity="0.6"/>
    <circle cx="441.2" cy="662.3" r="2.1" fill="#38bdf8" opacity="0.6"/>
    <circle cx="455.7" cy="693.7" r="2.1" fill="#38bdf8" opacity="0.6"/>
    <circle cx="535.8" cy="697.9" r="2.1" fill="#38bdf8" opacity="0.6"/>
    <circle cx="297.7" cy="694.3" r="2.1" fill="#38bdf8" opacity="0.6"/>
    <circle cx="411.2" cy="705.7" r="2.1" fill="#38bdf8" opacity="0.6"/>
    <circle cx="339.9" cy="688.8" r="2.1" fill="#38bdf8" opacity="0.6"/>
    <circle cx="444.6" cy="701.8" r="2.1" fill="#38bdf8" opacity="0.6"/>
    <circle cx="389.1" cy="660.2" r="2.1" fill="#38bdf8" opacity="0.6"/>
    <circle cx="552.5" cy="673.0" r="2.1" fill="#38bdf8" opacity="0.6"/>
    <circle cx="476.1" cy="677.0" r="2.1" fill="#38bdf8" opacity="0.6"/>
    <circle cx="330.4" cy="707.1" r="2.1" fill="#38bdf8" opacity="0.6"/>
    <circle cx="298.1" cy="659.1" r="2.1" fill="#38bdf8" opacity="0.6"/>
    <circle cx="478.6" cy="656.2" r="2.1" fill="#38bdf8" opacity="0.6"/>
    <circle cx="299.0" cy="674.2" r="2.1" fill="#38bdf8" opacity="0.6"/>
    <circle cx="420.8" cy="669.0" r="2.1" fill="#38bdf8" opacity="0.6"/>
    <circle cx="377.6" cy="654.2" r="2.1" fill="#38bdf8" opacity="0.6"/>
    <circle cx="313.2" cy="679.1" r="2.1" fill="#38bdf8" opacity="0.6"/>
    <circle cx="488.2" cy="659.7" r="2.1" fill="#38bdf8" opacity="0.6"/>
    <circle cx="607.9" cy="714.9" r="2.1" fill="#38bdf8" opacity="0.6"/>
    <circle cx="629.5" cy="708.9" r="2.1" fill="#38bdf8" opacity="0.6"/>
    <circle cx="460.0" cy="715.5" r="2.1" fill="#38bdf8" opacity="0.6"/>
    <circle cx="670.8" cy="710.1" r="2.1" fill="#38bdf8" opacity="0.6"/>
    <circle cx="485.1" cy="712.5" r="2.1" fill="#38bdf8" opacity="0.6"/>
    <circle cx="656.5" cy="718.7" r="2.1" fill="#38bdf8" opacity="0.6"/>
    <circle cx="564.9" cy="724.2" r="2.1" fill="#38bdf8" opacity="0.6"/>
    <circle cx="548.6" cy="717.7" r="2.1" fill="#38bdf8" opacity="0.6"/>
    <circle cx="355.7" cy="716.8" r="2.1" fill="#38bdf8" opacity="0.6"/>
    <circle cx="706.3" cy="709.9" r="2.1" fill="#38bdf8" opacity="0.6"/>
    <circle cx="604.5" cy="724.0" r="2.1" fill="#38bdf8" opacity="0.6"/>
    <circle cx="607.1" cy="718.5" r="2.1" fill="#38bdf8" opacity="0.6"/>
    <circle cx="494.0" cy="711.1" r="2.1" fill="#38bdf8" opacity="0.6"/>
    <circle cx="357.0" cy="713.6" r="2.1" fill="#38bdf8" opacity="0.6"/>
    <circle cx="336.3" cy="717.9" r="2.1" fill="#38bdf8" opacity="0.6"/>
    <circle cx="509.6" cy="728.6" r="2.1" fill="#38bdf8" opacity="0.6"/>
    <circle cx="593.0" cy="720.9" r="2.1" fill="#38bdf8" opacity="0.6"/>
    <circle cx="560.8" cy="708.7" r="2.1" fill="#38bdf8" opacity="0.6"/>
    <circle cx="423.1" cy="734.8" r="2.1" fill="#38bdf8" opacity="0.6"/>
    <circle cx="440.5" cy="715.7" r="2.1" fill="#38bdf8" opacity="0.6"/>
    <circle cx="402.7" cy="730.3" r="2.1" fill="#38bdf8" opacity="0.6"/>
    <circle cx="672.7" cy="716.2" r="2.1" fill="#38bdf8" opacity="0.6"/>
    <circle cx="494.6" cy="709.5" r="2.1" fill="#38bdf8" opacity="0.6"/>
    <circle cx="450.4" cy="716.0" r="2.1" fill="#38bdf8" opacity="0.6"/>
    <circle cx="401.1" cy="722.8" r="2.1" fill="#38bdf8" opacity="0.6"/>
    <circle cx="634.4" cy="708.9" r="2.1" fill="#38bdf8" opacity="0.6"/>
    <circle cx="662.9" cy="724.1" r="2.1" fill="#38bdf8" opacity="0.6"/>
    <circle cx="548.8" cy="726.1" r="2.1" fill="#38bdf8" opacity="0.6"/>
    <circle cx="377.2" cy="720.9" r="2.1" fill="#38bdf8" opacity="0.6"/>
    <circle cx="646.3" cy="710.8" r="2.1" fill="#38bdf8" opacity="0.6"/>
    <circle cx="598.0" cy="707.9" r="2.1" fill="#38bdf8" opacity="0.6"/>
    <circle cx="431.2" cy="730.3" r="2.1" fill="#38bdf8" opacity="0.6"/>
    <circle cx="497.9" cy="727.3" r="2.1" fill="#38bdf8" opacity="0.6"/>
    <circle cx="407.1" cy="723.3" r="2.1" fill="#38bdf8" opacity="0.6"/>
    <circle cx="565.2" cy="721.0" r="2.1" fill="#38bdf8" opacity="0.6"/>
    <circle cx="446.0" cy="711.1" r="2.1" fill="#38bdf8" opacity="0.6"/>
    <circle cx="702.0" cy="722.2" r="2.1" fill="#38bdf8" opacity="0.6"/>
    <circle cx="353.5" cy="734.3" r="2.1" fill="#38bdf8" opacity="0.6"/>
    <circle cx="660.1" cy="734.0" r="2.1" fill="#38bdf8" opacity="0.6"/>
    <circle cx="597.0" cy="718.8" r="2.1" fill="#38bdf8" opacity="0.6"/>
    <circle cx="443.5" cy="712.4" r="2.1" fill="#38bdf8" opacity="0.6"/>
    <circle cx="332.2" cy="731.3" r="2.1" fill="#38bdf8" opacity="0.6"/>
    <circle cx="499.5" cy="734.5" r="2.1" fill="#38bdf8" opacity="0.6"/>
    <circle cx="643.5" cy="728.3" r="2.1" fill="#38bdf8" opacity="0.6"/>
    <circle cx="379.0" cy="733.8" r="2.1" fill="#38bdf8" opacity="0.6"/>
    <circle cx="566.5" cy="722.3" r="2.1" fill="#38bdf8" opacity="0.6"/>
    <circle cx="566.8" cy="716.3" r="2.1" fill="#38bdf8" opacity="0.6"/>
    <circle cx="634.9" cy="707.6" r="2.1" fill="#38bdf8" opacity="0.6"/>
    <circle cx="587.7" cy="729.4" r="2.1" fill="#38bdf8" opacity="0.6"/>
    <circle cx="507.3" cy="730.0" r="2.1" fill="#38bdf8" opacity="0.6"/>
    <circle cx="329.0" cy="721.6" r="2.1" fill="#38bdf8" opacity="0.6"/>
    <circle cx="599.1" cy="730.0" r="2.1" fill="#38bdf8" opacity="0.6"/>
    <circle cx="429.4" cy="725.2" r="2.1" fill="#38bdf8" opacity="0.6"/>
    <circle cx="592.7" cy="720.2" r="2.1" fill="#38bdf8" opacity="0.6"/>
    <circle cx="560.8" cy="713.4" r="2.1" fill="#38bdf8" opacity="0.6"/>
    <circle cx="476.0" cy="712.4" r="2.1" fill="#38bdf8" opacity="0.6"/>
    <circle cx="672.9" cy="732.7" r="2.1" fill="#38bdf8" opacity="0.6"/>
    <circle cx="683.0" cy="714.4" r="2.1" fill="#38bdf8" opacity="0.6"/>
    <circle cx="374.7" cy="722.1" r="2.1" fill="#38bdf8" opacity="0.6"/>
    <circle cx="565.1" cy="709.0" r="2.1" fill="#38bdf8" opacity="0.6"/>
    <circle cx="469.6" cy="718.8" r="2.1" fill="#38bdf8" opacity="0.6"/>
    <circle cx="662.6" cy="712.3" r="2.1" fill="#38bdf8" opacity="0.6"/>
    <circle cx="687.5" cy="721.8" r="2.1" fill="#38bdf8" opacity="0.6"/>
    <circle cx="575.0" cy="729.3" r="2.1" fill="#38bdf8" opacity="0.6"/>
    <circle cx="602.1" cy="711.7" r="2.1" fill="#38bdf8" opacity="0.6"/>
    <circle cx="571.3" cy="714.5" r="2.1" fill="#38bdf8" opacity="0.6"/>
    <circle cx="406.8" cy="709.3" r="2.1" fill="#38bdf8" opacity="0.6"/>
    <circle cx="701.4" cy="707.1" r="2.1" fill="#38bdf8" opacity="0.6"/>
    <circle cx="531.1" cy="712.4" r="2.1" fill="#38bdf8" opacity="0.6"/>
    <circle cx="447.9" cy="709.0" r="2.1" fill="#38bdf8" opacity="0.6"/>
    <circle cx="653.5" cy="725.2" r="2.1" fill="#38bdf8" opacity="0.6"/>
    <circle cx="356.6" cy="722.5" r="2.1" fill="#38bdf8" opacity="0.6"/>
    <circle cx="536.2" cy="713.1" r="2.1" fill="#38bdf8" opacity="0.6"/>
    <circle cx="512.1" cy="734.3" r="2.1" fill="#38bdf8" opacity="0.6"/>
    <circle cx="635.6" cy="733.3" r="2.1" fill="#38bdf8" opacity="0.6"/>
    <circle cx="632.0" cy="730.2" r="2.1" fill="#38bdf8" opacity="0.6"/>
    <circle cx="453.5" cy="712.5" r="2.1" fill="#38bdf8" opacity="0.6"/>
    <circle cx="378.8" cy="730.9" r="2.1" fill="#38bdf8" opacity="0.6"/>
    <circle cx="304.1" cy="719.3" r="2.1" fill="#38bdf8" opacity="0.6"/>
    <circle cx="344.5" cy="719.9" r="2.1" fill="#38bdf8" opacity="0.6"/>
    <circle cx="357.8" cy="723.5" r="2.1" fill="#38bdf8" opacity="0.6"/>
    <circle cx="358.2" cy="731.0" r="2.1" fill="#38bdf8" opacity="0.6"/>
    <circle cx="267.2" cy="722.9" r="2.1" fill="#38bdf8" opacity="0.6"/>
    <circle cx="275.8" cy="719.2" r="2.1" fill="#38bdf8" opacity="0.6"/>
    <circle cx="319.4" cy="723.0" r="2.1" fill="#38bdf8" opacity="0.6"/>
    <circle cx="345.0" cy="722.3" r="2.1" fill="#38bdf8" opacity="0.6"/>
    <circle cx="278.5" cy="725.6" r="2.1" fill="#38bdf8" opacity="0.6"/>
    <circle cx="345.2" cy="716.1" r="2.1" fill="#38bdf8" opacity="0.6"/>
    <circle cx="265.5" cy="717.0" r="2.1" fill="#38bdf8" opacity="0.6"/>
    <circle cx="360.6" cy="723.0" r="2.1" fill="#38bdf8" opacity="0.6"/>
    <circle cx="721.1" cy="626.7" r="2.1" fill="#f59e0b" opacity="0.6"/>
    <circle cx="712.0" cy="599.1" r="2.1" fill="#f59e0b" opacity="0.6"/>
    <circle cx="729.0" cy="642.5" r="2.1" fill="#f59e0b" opacity="0.6"/>
    <circle cx="818.7" cy="597.9" r="2.1" fill="#f59e0b" opacity="0.6"/>
    <circle cx="678.6" cy="571.8" r="2.1" fill="#f59e0b" opacity="0.6"/>
    <circle cx="718.6" cy="600.2" r="2.1" fill="#f59e0b" opacity="0.6"/>
    <circle cx="750.1" cy="639.0" r="2.1" fill="#f59e0b" opacity="0.6"/>
    <circle cx="712.6" cy="607.2" r="2.1" fill="#f59e0b" opacity="0.6"/>
    <circle cx="815.6" cy="560.6" r="2.1" fill="#f59e0b" opacity="0.6"/>
    <circle cx="646.3" cy="601.8" r="2.1" fill="#f59e0b" opacity="0.6"/>
    <circle cx="611.3" cy="605.4" r="2.1" fill="#f59e0b" opacity="0.6"/>
    <circle cx="780.8" cy="562.7" r="2.1" fill="#f59e0b" opacity="0.6"/>
    <circle cx="697.3" cy="616.1" r="2.1" fill="#f59e0b" opacity="0.6"/>
    <circle cx="627.2" cy="588.6" r="2.1" fill="#f59e0b" opacity="0.6"/>
    <circle cx="807.8" cy="633.2" r="2.1" fill="#f59e0b" opacity="0.6"/>
    <circle cx="771.9" cy="643.0" r="2.1" fill="#f59e0b" opacity="0.6"/>
    <circle cx="627.8" cy="624.3" r="2.1" fill="#f59e0b" opacity="0.6"/>
    <circle cx="749.2" cy="615.6" r="2.1" fill="#f59e0b" opacity="0.6"/>
    <circle cx="667.5" cy="588.4" r="2.1" fill="#f59e0b" opacity="0.6"/>
    <circle cx="605.8" cy="578.2" r="2.1" fill="#f59e0b" opacity="0.6"/>
    <circle cx="610.3" cy="598.4" r="2.1" fill="#f59e0b" opacity="0.6"/>
    <circle cx="641.7" cy="627.0" r="2.1" fill="#f59e0b" opacity="0.6"/>
    <circle cx="710.6" cy="605.1" r="2.1" fill="#f59e0b" opacity="0.6"/>
    <circle cx="672.5" cy="607.3" r="2.1" fill="#f59e0b" opacity="0.6"/>
    <circle cx="710.3" cy="630.5" r="2.1" fill="#f59e0b" opacity="0.6"/>
    <circle cx="630.3" cy="587.3" r="2.1" fill="#f59e0b" opacity="0.6"/>
    <circle cx="737.2" cy="596.6" r="2.1" fill="#f59e0b" opacity="0.6"/>
    <circle cx="789.6" cy="589.1" r="2.1" fill="#f59e0b" opacity="0.6"/>
    <circle cx="790.9" cy="623.8" r="2.1" fill="#f59e0b" opacity="0.6"/>
    <circle cx="762.4" cy="571.0" r="2.1" fill="#f59e0b" opacity="0.6"/>
    <circle cx="710.9" cy="687.3" r="2.1" fill="#f59e0b" opacity="0.6"/>
    <circle cx="555.5" cy="655.6" r="2.1" fill="#f59e0b" opacity="0.6"/>
    <circle cx="530.0" cy="651.7" r="2.1" fill="#f59e0b" opacity="0.6"/>
    <circle cx="706.9" cy="696.8" r="2.1" fill="#f59e0b" opacity="0.6"/>
    <circle cx="535.6" cy="665.9" r="2.1" fill="#f59e0b" opacity="0.6"/>
    <circle cx="540.9" cy="698.8" r="2.1" fill="#f59e0b" opacity="0.6"/>
    <circle cx="692.3" cy="681.8" r="2.1" fill="#f59e0b" opacity="0.6"/>
    <circle cx="681.1" cy="697.2" r="2.1" fill="#f59e0b" opacity="0.6"/>
    <circle cx="578.8" cy="668.0" r="2.1" fill="#f59e0b" opacity="0.6"/>
    <circle cx="477.0" cy="693.3" r="2.1" fill="#f59e0b" opacity="0.6"/>
    <circle cx="652.7" cy="656.2" r="2.1" fill="#f59e0b" opacity="0.6"/>
    <circle cx="728.3" cy="697.8" r="2.1" fill="#f59e0b" opacity="0.6"/>
    <circle cx="606.0" cy="664.2" r="2.1" fill="#f59e0b" opacity="0.6"/>
    <circle cx="605.2" cy="668.0" r="2.1" fill="#f59e0b" opacity="0.6"/>
    <circle cx="779.1" cy="594.9" r="2.1" fill="#f472b6" opacity="0.6"/>
    <circle cx="774.3" cy="597.0" r="2.1" fill="#f472b6" opacity="0.6"/>
    <circle cx="800.2" cy="567.1" r="2.1" fill="#f472b6" opacity="0.6"/>
    <circle cx="801.2" cy="590.2" r="2.1" fill="#f472b6" opacity="0.6"/>
    <circle cx="778.8" cy="586.6" r="2.1" fill="#f472b6" opacity="0.6"/>
    <circle cx="816.9" cy="537.3" r="2.1" fill="#f472b6" opacity="0.6"/>
    <circle cx="822.0" cy="593.4" r="2.1" fill="#f472b6" opacity="0.6"/>
    <circle cx="629.3" cy="715.1" r="2.1" fill="#38bdf8" opacity="0.85"/>
    <circle cx="629.3" cy="715.1" r="6" fill="none" stroke="#7c3aed" stroke-width="1.6" opacity="0.95"/>
    <circle cx="667.0" cy="718.3" r="2.1" fill="#38bdf8" opacity="0.85"/>
    <circle cx="667.0" cy="718.3" r="6" fill="none" stroke="#7c3aed" stroke-width="1.6" opacity="0.95"/>
    <circle cx="654.3" cy="723.3" r="2.1" fill="#38bdf8" opacity="0.85"/>
    <circle cx="654.3" cy="723.3" r="6" fill="none" stroke="#7c3aed" stroke-width="1.6" opacity="0.95"/>
    <circle cx="672.0" cy="723.9" r="2.1" fill="#38bdf8" opacity="0.85"/>
    <circle cx="672.0" cy="723.9" r="6" fill="none" stroke="#7c3aed" stroke-width="1.6" opacity="0.95"/>
    <circle cx="680.1" cy="731.0" r="2.1" fill="#38bdf8" opacity="0.85"/>
    <circle cx="680.1" cy="731.0" r="6" fill="none" stroke="#7c3aed" stroke-width="1.6" opacity="0.95"/>
    <circle cx="689.5" cy="716.9" r="2.1" fill="#38bdf8" opacity="0.85"/>
    <circle cx="689.5" cy="716.9" r="6" fill="none" stroke="#7c3aed" stroke-width="1.6" opacity="0.95"/>
    <circle cx="640.6" cy="723.5" r="2.1" fill="#38bdf8" opacity="0.85"/>
    <circle cx="640.6" cy="723.5" r="6" fill="none" stroke="#7c3aed" stroke-width="1.6" opacity="0.95"/>
    <circle cx="693.1" cy="724.4" r="2.1" fill="#38bdf8" opacity="0.85"/>
    <circle cx="693.1" cy="724.4" r="6" fill="none" stroke="#7c3aed" stroke-width="1.6" opacity="0.95"/>
    <circle cx="641.9" cy="728.4" r="2.1" fill="#38bdf8" opacity="0.85"/>
    <circle cx="641.9" cy="728.4" r="6" fill="none" stroke="#7c3aed" stroke-width="1.6" opacity="0.95"/>
    <circle cx="671.8" cy="731.0" r="2.1" fill="#38bdf8" opacity="0.85"/>
    <circle cx="671.8" cy="731.0" r="6" fill="none" stroke="#7c3aed" stroke-width="1.6" opacity="0.95"/>
    <circle cx="702.1" cy="722.1" r="2.4" fill="#38bdf8"/>
    <circle cx="702.1" cy="722.1" r="7" fill="none" stroke="#7c3aed" stroke-width="1.8"/>
    <text x="504" y="639" font-size="11.5" fill="#334155" font-style="italic">Kepler-452b — the most Earth-like</text>
    <path d="M 600 647 C 634 709, 642 682, 694 715" fill="none" stroke="#64748b" stroke-width="1.2"/>
    <polygon points="694,715 686,713 690,707" fill="#64748b"/>
    <rect x="668" y="520" width="152" height="76" rx="6" fill="#ffffff" opacity="0.92"/>
    <circle cx="680" cy="531" r="3" fill="#38bdf8"/>
    <text x="691" y="534.5" font-size="11" fill="#64748b">transit</text>
    <circle cx="680" cy="548" r="3" fill="#f59e0b"/>
    <text x="691" y="551.5" font-size="11" fill="#64748b">radial velocity</text>
    <circle cx="680" cy="565" r="3" fill="#f472b6"/>
    <text x="691" y="568.5" font-size="11" fill="#64748b">imaging</text>
    <circle cx="680" cy="582" r="4.6" fill="none" stroke="#7c3aed" stroke-width="1.5"/>
    <text x="691" y="585.5" font-size="11" fill="#64748b">habitable zone</text>
    <text x="490" y="776" text-anchor="middle" font-size="11.5" fill="#64748b">orbital period (days)</text>
    <text x="106" y="632" font-size="11.5" fill="#64748b" transform="rotate(-90 106 632)" text-anchor="middle">radius (R⊕)</text>
  </g>
  <text x="848" y="776" font-size="12.5" fill="#94a3b8">412ms</text>
  <g stroke="#94a3b8" stroke-width="1.3" fill="none" stroke-linecap="round">
    <line x1="884" y1="767" x2="896" y2="767"/><line x1="884" y1="772" x2="893" y2="772"/><line x1="884" y1="777" x2="896" y2="777"/>
  </g>
  <line x1="6" y1="818" x2="934" y2="818" stroke="#e5e9f0"/>
  <text x="34" y="840" font-size="12.5" fill="#64748b" font-family="ui-monospace, Menlo, monospace">&gt;_ exoplanets</text>
  <rect x="148" y="824" width="84" height="24" rx="7" fill="#ffffff" stroke="#dde3ec"/>
  <g transform="translate(158.5,828.5) scale(0.6250)" fill="none" stroke="#9d2ce8" stroke-width="2" stroke-linecap="round" stroke-linejoin="round">
      <path d="M12 8V4H8"/>
      <rect width="16" height="12" x="4" y="8" rx="2"/>
      <path d="M2 14h2"/>
      <path d="M20 14h2"/>
      <path d="M15 13v2"/>
      <path d="M9 13v2"/>
    </g>
  <text x="178" y="840" font-size="12.5" fill="#9d2ce8" font-weight="600">Agent</text>
  <circle cx="220" cy="835" r="3.2" fill="#22c55e"/>
  <g transform="translate(896.5,827.5) scale(0.6250)" fill="none" stroke="#94a3b8" stroke-width="2" stroke-linecap="round" stroke-linejoin="round">
      <path d="M18 6 6 18"/>
      <path d="m6 6 12 12"/>
    </g>
  <rect x="6" y="854" width="928" height="27" fill="#f0fdf4"/>
  <circle cx="32" cy="867" r="4" fill="#22c55e"/>
  <text x="46" y="872" font-size="13" fill="#166534">Agent active (claude) · driving <tspan font-weight="700">exoplanets</tspan> — type instructions here, or use “Fix with agent” on a failing cell</text>
  <text x="912" y="872" text-anchor="end" font-size="12.5" fill="#16a34a" text-decoration="underline">agent exited?</text>
  <line x1="6" y1="881" x2="934" y2="881" stroke="#dcfce7"/>
  <g font-family="ui-monospace, SFMono-Regular, Menlo, monospace" font-size="12.5">
    <text x="34" y="908" fill="#1e293b">Colored all <tspan fill="#67b7f7">5,632</tspan> planets by discovery method and ringed the <tspan fill="#67b7f7">24</tspan> habitable-zone candidates in</text>
    <text x="34" y="928" fill="#1e293b">violet. Kepler-452b is annotated — 1.6 R⊕ on a 385-day orbit of a G2 star. Closest match to home.</text>
    <text x="34" y="956" fill="#94a3b8">✻ Worked for 41s</text>
  </g>
  <line x1="30" y1="970" x2="910" y2="970" stroke="#e5e9f0"/>
  <g font-family="ui-monospace, Menlo, monospace" font-size="12.5">
    <text x="34" y="990" fill="#334155">❯ </text>
    <rect x="49" y="979" width="7.5" height="14" fill="#334155"/>
    <text x="50" y="990" fill="#ffffff">g</text>
    <text x="57" y="990" fill="#334155">orgeous — now zoom into the violet band</text>
  </g>
  <line x1="30" y1="1000" x2="910" y2="1000" stroke="#e5e9f0"/>
  <g font-family="ui-monospace, Menlo, monospace" font-size="12">
    <polygon points="34,1009 34,1017 40,1013" fill="#dc2626"/>
    <polygon points="41,1009 41,1017 47,1013" fill="#dc2626"/>
    <text x="52" y="1017" fill="#dc2626">bypass permissions on <tspan fill="#64748b">(shift+tab to cycle) · ← for agents</tspan></text>
  </g>
  <path d="M6 1048 h928 v14 a12 12 0 0 1 -12 12 h-904 a12 12 0 0 1 -12 -12 z" fill="#f8fafc"/>
  <line x1="6" y1="1048" x2="934" y2="1048" stroke="#e5e9f0"/>
  <rect x="22" y="1053" width="92" height="22" rx="5" fill="#e9edf3"/>
  <text x="36" y="1068" font-size="12" fill="#475569" font-family="ui-monospace, Menlo, monospace">&gt;_ Terminal</text>
  <g transform="translate(127.0,1057.0) scale(0.5833)" fill="none" stroke="#64748b" stroke-width="1.9" stroke-linecap="round" stroke-linejoin="round">
      <path d="M3 12a9 9 0 1 0 9-9 9.75 9.75 0 0 0-6.74 2.74L3 8"/>
      <path d="M3 3v5h5"/>
      <path d="M12 7v5l4 2"/>
    </g>
  <text x="146" y="1068" font-size="12" fill="#64748b">History</text>
  <g transform="translate(771.0,1057.0) scale(0.5833)" fill="none" stroke="#64748b" stroke-width="1.9" stroke-linecap="round" stroke-linejoin="round">
      <path d="M12.83 2.18a2 2 0 0 0-1.66 0L2.6 6.08a1 1 0 0 0 0 1.83l8.58 3.91a2 2 0 0 0 1.66 0l8.58-3.9a1 1 0 0 0 0-1.83z"/>
      <path d="M2 12a1 1 0 0 0 .58.91l8.6 3.91a2 2 0 0 0 1.65 0l8.58-3.9A1 1 0 0 0 22 12"/>
      <path d="M2 17a1 1 0 0 0 .58.91l8.6 3.91a2 2 0 0 0 1.65 0l8.58-3.9A1 1 0 0 0 22 17"/>
    </g>
  <text x="790" y="1068" font-size="12" fill="#64748b">1 cells</text>
  <g transform="translate(845.0,1057.0) scale(0.5833)" fill="none" stroke="#64748b" stroke-width="1.9" stroke-linecap="round" stroke-linejoin="round">
      <path d="M12 12v-2"/>
      <path d="M12 18v-2"/>
      <path d="M16 12v-2"/>
      <path d="M16 18v-2"/>
      <path d="M2 11h1.5"/>
      <path d="M20 18v-2"/>
      <path d="M20.5 11H22"/>
      <path d="M4 18v-2"/>
      <path d="M8 12v-2"/>
      <path d="M8 18v-2"/>
      <rect x="2" y="6" width="20" height="10" rx="2"/>
    </g>
  <text x="866" y="1068" font-size="12" fill="#64748b">86 MB</text>
</svg>